# xmcd CD database file
#
# Track frame offsets:
#	182
#	29437
#	55727
#	97672
#	126457
#	148662
#	176732
#	209095
#	231262
#
# Disc length: 3564 seconds
#
# Revision: 0
# Processed by: cddbd v1.5.2PL0 Copyright (c) Steve Scherf et al.
# Submitted via: CDex 1.51
#
DISCID=830dea09
DTITLE=François Faure Trio - That's All
DYEAR=1992
DGENRE=Jazz
TTITLE0=But Beautiful
TTITLE1=Sacré Thomas
TTITLE2=Maë
TTITLE3=That's All
TTITLE4=Mathilde
TTITLE5=Hampton
TTITLE6=Round Midnight
TTITLE7=Nine
TTITLE8=Aïna
EXTD=YEAR: 1992
EXTT0=
EXTT1=
EXTT2=
EXTT3=
EXTT4=
EXTT5=
EXTT6=
EXTT7=
EXTT8=
PLAYORDER=
